<svg xmlns="http://www.w3.org/2000/svg" version="1.1" xmlns:xlink="http://www.w3.org/1999/xlink" xmlns:svgjs="http://svgjs.dev/svgjs" width="700" height="700" preserveAspectRatio="none" viewBox="0 0 700 700">
    <g mask="url(&quot;#SvgjsMask1370&quot;)" fill="none">
        <rect width="700" height="700" x="0" y="0" fill="url(&quot;#SvgjsLinearGradient1371&quot;)"></rect>
        <path d="M723.3333333333334 700L0 700 L0 588.99Q33.9 564.55, 58.33333333333333 598.45Q63.71 568.83, 93.33333333333333 574.2Q112.17 534.71, 151.66666666666666 553.55Q163.7 530.58, 186.66666666666666 542.61Q231.7 529.31, 245 574.34Q284.07 555.07, 303.3333333333333 594.14Q313.53 546.01, 361.66666666666663 556.21Q398.57 534.78, 419.99999999999994 571.69Q464.11 557.46, 478.33333333333326 601.57Q483.35 548.26, 536.6666666666666 553.28Q542.42 524.03, 571.6666666666666 529.79Q622.49 545.62, 606.6666666666666 596.44Q618.56 550, 665 561.9Q675.97 514.54, 723.3333333333334 525.51z" fill="rgba(205, 206, 215, 1)"></path>
        <path d="M758.3333333333334 700L0 700 L0 638.65Q27.53 607.84, 58.33333333333333 635.37Q75.21 593.91, 116.66666666666666 610.79Q121.73 580.86, 151.66666666666666 585.92Q192.54 591.79, 186.66666666666666 632.66Q227.99 615.65, 245 656.98Q260.39 637.38, 280 652.77Q277.43 615.2, 315 612.63Q337.82 577.12, 373.3333333333333 599.94Q421.83 590.1, 431.66666666666663 638.6Q470.16 618.76, 489.99999999999994 657.26Q498.82 607.74, 548.3333333333333 616.56Q549.84 583.07, 583.3333333333333 584.58Q651.49 594.4, 641.6666666666666 662.55Q637.98 600.53, 700 596.84Q727.69 566.2, 758.3333333333334 593.89z" fill="rgba(225, 226, 231, 1)"></path>
        <path d="M711.6666666666666 700L0 700 L0 664.62Q7.59 637.21, 35 644.8Q102.2 653.67, 93.33333333333333 720.87Q85.63 678.16, 128.33333333333331 670.46Q135.42 642.55, 163.33333333333331 649.64Q215.74 667.05, 198.33333333333331 719.45Q214.92 677.7, 256.66666666666663 694.29Q263.1 642.39, 314.99999999999994 648.83Q349.14 624.63, 373.33333333333326 658.77Q415.52 642.63, 431.6666666666666 684.82Q442.88 661.03, 466.6666666666666 672.24Q470.09 640.66, 501.6666666666666 644.08Q543 627.08, 559.9999999999999 668.42Q605.52 655.61, 618.3333333333333 701.13Q636.17 660.63, 676.6666666666666 678.46Q676.02 642.81, 711.6666666666666 642.16z" fill="rgba(245, 245, 247, 1)"></path>
    </g>
    <defs>
        <mask id="SvgjsMask1370">
            <rect width="700" height="700" fill="#ffffff"></rect>
        </mask>
        <linearGradient x1="50%" y1="100%" x2="50%" y2="0%" gradientUnits="userSpaceOnUse" id="SvgjsLinearGradient1371">
            <stop stop-color="rgba(0, 80, 167, 1)" offset="0"></stop>
            <stop stop-color="rgba(49, 148, 255, 1)" offset="1"></stop>
        </linearGradient>
    </defs>
</svg>